<?xml version="1.0" encoding="iso-8859-1"?>
<!-- Uploaded to: SVG Repo, www.svgrepo.com, Generator: SVG Repo Mixer Tools -->
<svg version="1.1" id="Layer_1" xmlns="http://www.w3.org/2000/svg" xmlns:xlink="http://www.w3.org/1999/xlink" 
	 viewBox="0 0 512 512" xml:space="preserve">
<polygon style="fill:#8CE6FE;" points="512,466.989 0,466.989 0,160.352 11.253,151.912 0,143.473 0,118.154 256,61.89 512,118.154 
	512,177.231 500.747,185.67 512,194.11 512,244.747 500.747,253.187 512,261.626 "/>
<g>
	<rect x="76.89" y="419.165" style="fill:#875B51;" width="16.879" height="56.264"/>
	<rect x="247.56" y="419.165" style="fill:#875B51;" width="16.879" height="56.264"/>
	<rect x="418.231" y="419.165" style="fill:#875B51;" width="16.879" height="56.264"/>
</g>
<path style="fill:#7F9058;" d="M366.221,63.117v43.784l-31.451,11.253h-33.758l-56.264-33.758l99.598-42.063
	c9.182,5.323,17.183,12.659,21.797,20.739L366.221,63.117z"/>
<path style="fill:#95AC66;" d="M344.345,42.333l-43.334,75.821H145.779V63.117l0.079-0.045
	c9.205-16.125,31.935-29.313,50.502-29.313H315.64C324.901,33.758,335.197,37.044,344.345,42.333z"/>
<polygon style="fill:#AAC36D;" points="512,0 512,118.154 433.231,118.154 478.242,0 "/>
<path style="fill:#BFDB74;" d="M478.242,0v118.154H334.769l50.772-88.84C394.746,13.188,417.477,0,436.044,0H478.242z"/>
<path style="fill:#AAC36D;" d="M145.779,63.117l-19.321-33.803C117.254,13.188,94.523,0,75.956,0H42.198l101.275,118.154h33.758
	L145.779,63.117z"/>
<path style="fill:#BFDB74;" d="M92.7,29.313l50.772,88.84H0V0h42.198C60.765,0,83.495,13.188,92.7,29.313z"/>
<g>
	<path style="fill:#FFFFFF;" d="M421.978,143.473H0v16.879h421.978c4.662,0,8.44-3.779,8.44-8.44S426.64,143.473,421.978,143.473z"
		/>
	<path style="fill:#FFFFFF;" d="M225.055,177.231c-4.662,0-8.44,3.779-8.44,8.44s3.778,8.44,8.44,8.44H512v-16.879H225.055z"/>
	<path style="fill:#FFFFFF;" d="M191.297,194.11H90.022c-4.662,0-8.44-3.779-8.44-8.44s3.778-8.44,8.44-8.44h101.275
		c4.662,0,8.44,3.779,8.44,8.44S195.959,194.11,191.297,194.11z"/>
	<path style="fill:#FFFFFF;" d="M341.333,244.747c-4.662,0-8.44,3.779-8.44,8.44s3.778,8.44,8.44,8.44H512v-16.879H341.333z"/>
</g>
<polygon style="fill:#7F9058;" points="132.49,361.281 149.333,361.281 114.57,300.887 128,294.957 85.333,220.835 65.641,341.588 
	85.333,427.604 170.667,427.604 "/>
<polygon style="fill:#95AC66;" points="85.333,427.604 0,427.604 38.177,361.281 21.333,361.281 59.51,294.957 42.667,294.957 
	85.333,220.835 "/>
<polygon style="fill:#7F9058;" points="303.157,361.281 320,361.281 285.237,300.887 298.667,294.957 256,220.835 236.308,341.588 
	256,427.604 341.333,427.604 "/>
<polygon style="fill:#95AC66;" points="256,427.604 170.667,427.604 208.843,361.281 192,361.281 230.177,294.957 213.333,294.957 
	256,220.835 "/>
<polygon style="fill:#7F9058;" points="473.823,361.281 490.667,361.281 455.904,300.887 469.333,294.957 426.667,220.835 
	406.975,341.588 426.667,427.604 512,427.604 "/>
<polygon style="fill:#95AC66;" points="426.667,427.604 341.333,427.604 379.51,361.281 362.667,361.281 400.843,294.957 
	384,294.957 426.667,220.835 "/>
<rect x="478.242" y="466.989" style="fill:#AAC36D;" width="33.758" height="45.011"/>
<rect y="466.989" style="fill:#CAED73;" width="478.242" height="45.011"/>
</svg>