<?xml version="1.0" encoding="utf-8"?><!-- Uploaded to: SVG Repo, www.svgrepo.com, Generator: SVG Repo Mixer Tools -->
<svg width="800px" height="800px" viewBox="0 0 400 400" fill="none" xmlns="http://www.w3.org/2000/svg">
<path d="M146.766 173.395C144.929 192.224 133.931 288.423 148.656 300.692C154.959 305.941 185.732 303.093 193.787 303.093C206.246 303.093 238.122 308.395 244.222 293.359C254.728 267.463 248.202 206.351 248.202 177.848" stroke="#000000" stroke-opacity="0.9" stroke-width="16" stroke-linecap="round" stroke-linejoin="round"/>
<path d="M183.191 246.689C228.583 233.395 191.928 294.189 181.103 250.391" stroke="#000000" stroke-opacity="0.9" stroke-width="16" stroke-linecap="round" stroke-linejoin="round"/>
<path d="M177.466 296.744C184.605 263.848 202.209 262.296 210.199 295.692" stroke="#000000" stroke-opacity="0.9" stroke-width="16" stroke-linecap="round" stroke-linejoin="round"/>
<path d="M144.099 104.362C131.768 102.603 113.015 98.1036 112.071 109.956C111.23 120.516 118.065 183.07 122.391 183.07C126.264 183.07 150.098 134.192 150.795 129.431" stroke="#000000" stroke-opacity="0.9" stroke-width="16" stroke-linecap="round" stroke-linejoin="round"/>
<path d="M238.082 111.383C238.7 120.948 264.717 183.22 265.68 183.07C273.694 181.829 290.474 112.95 288.896 111.383C275.127 97.7261 256.886 105.41 241.587 105.41" stroke="#000000" stroke-opacity="0.9" stroke-width="16" stroke-linecap="round" stroke-linejoin="round"/>
<path d="M164.13 109.302C184.383 92.4473 210.49 91.9617 232.021 105.85" stroke="#000000" stroke-opacity="0.9" stroke-width="16" stroke-linecap="round" stroke-linejoin="round"/>
<path d="M177.046 164.93C177.497 159.717 177.524 154.297 177.885 149.209" stroke="#000000" stroke-opacity="0.9" stroke-width="16" stroke-linecap="round" stroke-linejoin="round"/>
<path d="M220.094 164.93C220.138 159.646 220.177 154.381 219.675 149.209" stroke="#000000" stroke-opacity="0.9" stroke-width="16" stroke-linecap="round" stroke-linejoin="round"/>
</svg>