<?xml version="1.0" ?><!-- Uploaded to: SVG Repo, www.svgrepo.com, Generator: SVG Repo Mixer Tools -->
<svg width="800px" height="800px" viewBox="0 0 150 150" id="ART" xmlns="http://www.w3.org/2000/svg"><defs><style>.cls-1{fill:#ccc;stroke-linejoin:round;stroke-width:4px;}.cls-1,.cls-2,.cls-3{stroke:#000000;}.cls-2{fill:#bf7d47;stroke-width:3px;}.cls-2,.cls-3{stroke-linecap:round;stroke-miterlimit:10;}.cls-3{fill:#eddbae;}.cls-4{fill:#e2a350;}</style></defs><title/><path class="cls-1" d="M98.15,144.75s-6-50.51-1.27-61.09H53.12c4.77,10.58-1.27,61.09-1.27,61.09"/><path class="cls-1" d="M119.31,68.88c0,19.55-19.84,31.71-44.31,31.71S30.69,88.43,30.69,68.88c0-15.09,8.17-21.3,11.58-30.53C45.91,28.48,55.42,7,75,7s29.09,21.47,32.73,31.34C111.13,47.58,119.31,53.79,119.31,68.88Z"/><path class="cls-2" d="M75,50c3.81,0,8.15-3.65,11.16-1.38,1.47,1.11,1.41,14.19,4.57,24.55C94,84,96.93,93.5,96.77,96.4c-.33,5.66-15.3,22.73-21.77,22.73S53.56,102.06,53.23,96.4c-.17-2.9,2.72-12.39,6-23.26,3.16-10.36,3.1-23.44,4.57-24.55C66.85,46.32,71.19,50,75,50Z" data-name="&lt;Path&gt;" id="_Path_"/><path class="cls-3" d="M101.38,44.66c-1.47,3.83-3.93,4.57-7,4.25-2.85-.3-5-2-3.5-5.82s5.38-7.53,8-6.51S102.85,40.84,101.38,44.66Z"/><ellipse cx="95.76" cy="43.65" rx="2.33" ry="4"/><path class="cls-3" d="M48.62,44.66c1.47,3.83,3.93,4.57,7,4.25,2.85-.3,5-2,3.5-5.82s-5.38-7.53-8-6.51S47.15,40.84,48.62,44.66Z"/><ellipse cx="54.24" cy="43.65" rx="2.33" ry="4"/><path d="M68.25,70.51c-.62,2.19-.56,4.08.13,4.23s1.76-1.5,2.38-3.69.56-4.08-.13-4.23S68.87,68.32,68.25,70.51Z"/><path d="M81.75,70.51c.62,2.19.56,4.08-.13,4.23s-1.76-1.5-2.38-3.69-.56-4.08.13-4.23S81.13,68.32,81.75,70.51Z"/><path class="cls-4" d="M89.42,106.19C84.65,111.9,78.23,117.63,75,117.63s-9.65-5.73-14.42-11.44a19.7,19.7,0,0,1,28.84,0Z"/></svg>